<?xml version="1.0" encoding="UTF-8" standalone="no"?>
<svg
   xmlns:dc="http://purl.org/dc/elements/1.1/"
   xmlns:cc="http://creativecommons.org/ns#"
   xmlns:rdf="http://www.w3.org/1999/02/22-rdf-syntax-ns#"
   xmlns:svg="http://www.w3.org/2000/svg"
   xmlns="http://www.w3.org/2000/svg"
   xmlns:sodipodi="http://sodipodi.sourceforge.net/DTD/sodipodi-0.dtd"
   xmlns:inkscape="http://www.inkscape.org/namespaces/inkscape"
   viewBox="0 0 100 100"
   enable-background="new 0 0 100 100"
   version="1.1"
   id="svg66"
   sodipodi:docname="touch_trucks.svg"
   inkscape:version="0.92.2 (5c3e80d, 2017-08-06)">
  <metadata
     id="metadata72">
    <rdf:RDF>
      <cc:Work
         rdf:about="">
        <dc:format>image/svg+xml</dc:format>
        <dc:type
           rdf:resource="http://purl.org/dc/dcmitype/StillImage" />
        <dc:title></dc:title>
      </cc:Work>
    </rdf:RDF>
  </metadata>
  <defs
     id="defs70" />
  <sodipodi:namedview
     pagecolor="#ffffff"
     bordercolor="#666666"
     borderopacity="1"
     objecttolerance="10"
     gridtolerance="10"
     guidetolerance="10"
     inkscape:pageopacity="0"
     inkscape:pageshadow="2"
     inkscape:window-width="640"
     inkscape:window-height="480"
     id="namedview68"
     showgrid="false"
     inkscape:zoom="2.36"
     inkscape:cx="113.55932"
     inkscape:cy="-32.627119"
     inkscape:current-layer="svg66" />
  <circle
     cx="50"
     cy="50"
     r="50"
     fill="#518ebc"
     id="circle2" />
  <path
     d="m86 61.4l2.8-2.8-2.7-1.8-2.4.5.2-.8 4.3-4.3-5.3-3-5.5-6.8-.5-1.2-3.6 3.6-.4-1.3-.6-1.6-1-1.1 3.1-3.1-12.2-.7 12.8-12.9-8.7 3.7-9 4.9 14.1-14.1-10.4 3.2-21.4.1-38.5 38.4c4.7 22.7 24.8 39.7 48.9 39.7.8 0 1.6 0 2.4-.1l32.9-32.9-.3-.5 1.9-1.9-.9-3.2"
     fill="#417ca5"
     id="path4" />
  <g
     fill="#5b6570"
     id="g10">
    <path
       d="m35 43l5.8 4.9h14.6l9.6-8.1-4.7-4-25.3 6.6"
       id="path6" />
    <path
       d="m30.3 43.5l40.1-3.8-.2-5-4-1.7-5.8-1-28.8 4.4-2.9 2.4c0 0-.9 2.4-.8 2.4"
       id="path8" />
  </g>
  <path
     d="m69.8 29.9l-6.9-10.2-23.4 2.2-2.1 12.2-11.2 2.1-.9 4.4-.1.5 3.2 2.6 2-.2c-.1-.3-.2-.7-.2-1.1-.3-2.7 1.7-5 4.4-5.3 2.7-.3 5 1.7 5.3 4.4 0 .4 0 .7 0 1.1l20.9-2c-.1-.3-.2-.7-.2-1.1-.3-2.7 1.7-5 4.4-5.3 2.7-.3 5 1.7 5.3 4.4 0 .4 0 .7 0 1.1l1.9-.2 1.3-3-.7-6.9-3 .3"
     fill="#ff8891"
     id="path12" />
  <g
     fill="#db5364"
     id="g20">
    <path
       d="m61.6 35.8l-23.8 2.2c.9.7 1.6 1.7 1.9 2.9l20.7-2c-.1-1.1.4-2.3 1.2-3.1"
       id="path14" />
    <path
       d="m74.2 34.6l-6.1.6c.9.7 1.6 1.7 1.9 2.9l4.6-.4-.4-3.1"
       id="path16" />
    <path
       d="m31.3 38.7l-7 .7.3 3.1 5.4-.5c0-1.4.5-2.5 1.3-3.3"
       id="path18" />
  </g>
  <g
     fill="#3a2d39"
     id="g26">
    <path
       d="m41.5 22.8l-2.2.2-1.9 11.1 5.2-.7z"
       id="path22" />
    <path
       d="m51.9 21.8l-8.9.8 1 10.7 15.4-1.6z"
       id="path24" />
  </g>
  <path
     transform="matrix(.9955-.09438.09438.9955-2.733 6.853)"
     fill="#ffdeb6"
     d="m69.4 31.1h3.4v2.5h-3.4z"
     id="path28" />
  <g
     fill="#a7bdc1"
     id="g38">
    <path
       d="m29.6 57.5c-1.3-.4-2-1.8-1.5-3.1l4.8-13.9c.4-1.3 1.8-2 3.1-1.5 1.3.4 2 1.8 1.5 3.1l-4.8 13.9c-.4 1.3-1.8 2-3.1 1.5"
       id="path30" />
    <path
       d="m71.2 55.2c1.3-.4 2-1.8 1.5-3.1l-4.7-13.9c-.4-1.3-1.8-2-3.1-1.5-1.3.4-2 1.8-1.5 3.1l4.8 13.9c.3 1.3 1.8 2 3 1.5"
       id="path32" />
    <path
       d="m32.4 54.1c-.4-.5-.3-1.2.2-1.6l9.8-7.9c.5-.4 1.2-.3 1.6.2.4.5.3 1.2-.2 1.6l-9.8 7.9c-.5.3-1.2.3-1.6-.2"
       id="path34" />
    <path
       d="m55.2 44.2c.3-.5 1-.7 1.5-.4l10.8 6.4c.5.3.7 1 .4 1.5-.3.5-1 .7-1.5.4l-10.8-6.4c-.5-.3-.7-1-.4-1.5"
       id="path36" />
  </g>
  <path
     d="m88.8 58.7v-3.6h-1.2c-.1-.8-.2-1.6-.5-2.4l1.1-.5-1.4-3.3-1.1.5c-.3-.6-.7-1.2-1.2-1.7l.8-.8-2.6-2.6-.7.7c-.7-.5-1.4-1-2.1-1.4l.4-1-3.4-1.3-.4 1c-.7-.2-1.4-.3-2.1-.4v-1.1h-3.6v1.1c-.8.1-1.7.3-2.5.5l-.4-1-3.3 1.4.4 1c-.6.4-1.2.8-1.7 1.2l-.8-.8-2.6 2.6.8.8c-.5.7-1 1.4-1.4 2.1l-1.1-.4-1.3 3.4 1.1.4c-.2.7-.3 1.3-.4 2h-1.2v3.6h1.3c.1.8.3 1.6.5 2.4l-1.2.5 1.4 3.3 1.2-.5c.3.6.7 1.1 1.1 1.7l-1 1 2.6 2.6 1-1c.6.5 1.3.9 2 1.3l-.5 1.3 3.4 1.3.5-1.3c.6.2 1.3.3 2 .4v1.3h3.6v-1.4c.8-.1 1.6-.3 2.3-.5l.6 1.3 3.3-1.4-.6-1.3c.6-.3 1.1-.7 1.7-1.1l1 1 2.6-2.6-1-1c.5-.6 1-1.3 1.3-2l1.2.5 1.3-3.4-1.2-.5c.2-.7.3-1.3.4-2h1.6z"
     fill="#59493e"
     id="path40" />
  <circle
     cx="72.6"
     cy="56.9"
     r="8.9"
     fill="#423228"
     id="circle42" />
  <circle
     cx="72.6"
     cy="56.9"
     r="5.1"
     fill="#a7bdc1"
     id="circle44" />
  <circle
     cx="72.6"
     cy="56.9"
     r="2.4"
     fill="#5b6570"
     id="circle46" />
  <path
     d="m39.5 60.5v-3.2h-1.1c-.1-.7-.2-1.4-.4-2.1l1-.4-1.3-2.9-.9.4c-.3-.5-.6-1-1-1.5l.7-.7-2.2-2.2-.7.7c-.6-.5-1.2-.9-1.8-1.2l.4-.9-2.9-1.2-.3.9c-.6-.2-1.2-.3-1.8-.4v-.9h-3.2v.9c-.7.1-1.5.2-2.2.4l-.4-.9-2.9 1.3.4.9c-.5.3-1 .7-1.5 1l-.7-.7-2.4 2.2.7.7c-.4.6-.8 1.2-1.2 1.8l-.9-.4-1.2 2.9 1 .4c-.1.6-.3 1.2-.3 1.8h-1.1v3.2h1.1c.1.7.2 1.4.5 2.1l-1 .4 1.3 2.9 1.1-.5c.3.5.6 1 1 1.5l-.8.8 2.2 2.2.9-.9c.6.4 1.1.8 1.8 1.1l-.5 1.1 2.9 1.2.5-1.2c.6.1 1.1.3 1.7.3v1.6h3v-1.2c.7-.1 1.4-.2 2-.4l.5 1.1 2.9-1.3-.5-1.1c.5-.3 1-.6 1.5-1l.9.9 2.2-2.2-.8-.8c.4-.5.8-1.1 1.2-1.8l1.1.4 1.2-2.9-1.2-.5c.2-.6.3-1.2.4-1.8h1.1z"
     fill="#59493e"
     id="path48" />
  <circle
     cx="25.4"
     cy="58.9"
     r="7.8"
     fill="#423228"
     id="circle50" />
  <circle
     cx="25.4"
     cy="58.9"
     r="4.5"
     fill="#a7bdc1"
     id="circle52" />
  <g
     fill="#d34052"
     id="g58">
    <circle
       cx="59.7"
       cy="24.1"
       r="2.7"
       id="circle54" />
    <circle
       cx="64.2"
       cy="29.4"
       r="2.7"
       id="circle56" />
  </g>
  <g
     fill="#daeaed"
     id="g64">
    <path
       d="m64.7 30.7c-.7.5-1.7.2-2.1-.5-.5-.7-.2-1.7.5-2.1l12-7.7v3.7l-10.4 6.6"
       id="path60" />
    <path
       d="m61 25.2c-.7.5-1.7.2-2.1-.5-.5-.7-.2-1.7.5-2.1l12-7.7v3.7l-10.4 6.6"
       id="path62" />
  </g>
</svg>
